<svg id="visual" viewBox="0 0 900 600" width="900" height="600" xmlns="http://www.w3.org/2000/svg" xmlns:xlink="http://www.w3.org/1999/xlink" version="1.1"><rect x="0" y="0" width="900" height="600" fill="#000000"></rect><defs><linearGradient id="grad1_0" x1="33.3%" y1="100%" x2="100%" y2="0%"><stop offset="20%" stop-color="#121212" stop-opacity="1"></stop><stop offset="80%" stop-color="#121212" stop-opacity="1"></stop></linearGradient></defs><defs><linearGradient id="grad1_1" x1="33.3%" y1="100%" x2="100%" y2="0%"><stop offset="20%" stop-color="#121212" stop-opacity="1"></stop><stop offset="80%" stop-color="#101010" stop-opacity="1"></stop></linearGradient></defs><defs><linearGradient id="grad1_2" x1="33.3%" y1="100%" x2="100%" y2="0%"><stop offset="20%" stop-color="#0e0e0e" stop-opacity="1"></stop><stop offset="80%" stop-color="#101010" stop-opacity="1"></stop></linearGradient></defs><defs><linearGradient id="grad1_3" x1="33.3%" y1="100%" x2="100%" y2="0%"><stop offset="20%" stop-color="#0e0e0e" stop-opacity="1"></stop><stop offset="80%" stop-color="#0b0b0b" stop-opacity="1"></stop></linearGradient></defs><defs><linearGradient id="grad1_4" x1="33.3%" y1="100%" x2="100%" y2="0%"><stop offset="20%" stop-color="#090909" stop-opacity="1"></stop><stop offset="80%" stop-color="#0b0b0b" stop-opacity="1"></stop></linearGradient></defs><defs><linearGradient id="grad1_5" x1="33.3%" y1="100%" x2="100%" y2="0%"><stop offset="20%" stop-color="#090909" stop-opacity="1"></stop><stop offset="80%" stop-color="#060606" stop-opacity="1"></stop></linearGradient></defs><defs><linearGradient id="grad1_6" x1="33.3%" y1="100%" x2="100%" y2="0%"><stop offset="20%" stop-color="#030303" stop-opacity="1"></stop><stop offset="80%" stop-color="#060606" stop-opacity="1"></stop></linearGradient></defs><defs><linearGradient id="grad1_7" x1="33.3%" y1="100%" x2="100%" y2="0%"><stop offset="20%" stop-color="#030303" stop-opacity="1"></stop><stop offset="80%" stop-color="#000000" stop-opacity="1"></stop></linearGradient></defs><defs><linearGradient id="grad2_0" x1="0%" y1="100%" x2="66.7%" y2="0%"><stop offset="20%" stop-color="#121212" stop-opacity="1"></stop><stop offset="80%" stop-color="#121212" stop-opacity="1"></stop></linearGradient></defs><defs><linearGradient id="grad2_1" x1="0%" y1="100%" x2="66.7%" y2="0%"><stop offset="20%" stop-color="#101010" stop-opacity="1"></stop><stop offset="80%" stop-color="#121212" stop-opacity="1"></stop></linearGradient></defs><defs><linearGradient id="grad2_2" x1="0%" y1="100%" x2="66.7%" y2="0%"><stop offset="20%" stop-color="#101010" stop-opacity="1"></stop><stop offset="80%" stop-color="#0e0e0e" stop-opacity="1"></stop></linearGradient></defs><defs><linearGradient id="grad2_3" x1="0%" y1="100%" x2="66.7%" y2="0%"><stop offset="20%" stop-color="#0b0b0b" stop-opacity="1"></stop><stop offset="80%" stop-color="#0e0e0e" stop-opacity="1"></stop></linearGradient></defs><defs><linearGradient id="grad2_4" x1="0%" y1="100%" x2="66.7%" y2="0%"><stop offset="20%" stop-color="#0b0b0b" stop-opacity="1"></stop><stop offset="80%" stop-color="#090909" stop-opacity="1"></stop></linearGradient></defs><defs><linearGradient id="grad2_5" x1="0%" y1="100%" x2="66.7%" y2="0%"><stop offset="20%" stop-color="#060606" stop-opacity="1"></stop><stop offset="80%" stop-color="#090909" stop-opacity="1"></stop></linearGradient></defs><defs><linearGradient id="grad2_6" x1="0%" y1="100%" x2="66.7%" y2="0%"><stop offset="20%" stop-color="#060606" stop-opacity="1"></stop><stop offset="80%" stop-color="#030303" stop-opacity="1"></stop></linearGradient></defs><defs><linearGradient id="grad2_7" x1="0%" y1="100%" x2="66.7%" y2="0%"><stop offset="20%" stop-color="#000000" stop-opacity="1"></stop><stop offset="80%" stop-color="#030303" stop-opacity="1"></stop></linearGradient></defs><g transform="translate(900, 600)"><path d="M-540.8 0C-521.8 -37.8 -502.7 -75.5 -489.4 -111.7C-476.1 -147.9 -468.6 -182.4 -461.3 -222.1C-454 -261.9 -447 -306.9 -422.8 -337.2C-398.7 -367.6 -357.5 -383.3 -320.5 -401.9C-283.5 -420.4 -250.6 -441.8 -214.3 -445.1C-178 -448.4 -138.2 -433.6 -101.9 -446.5C-65.6 -459.5 -32.8 -500.1 0 -540.8L0 0Z" fill="#010101"></path><path d="M-473.2 0C-456.6 -33.1 -439.9 -66.1 -428.2 -97.7C-416.6 -129.4 -410 -159.6 -403.6 -194.4C-397.3 -229.2 -391.1 -268.5 -370 -295.1C-348.9 -321.6 -312.8 -335.4 -280.4 -351.6C-248 -367.9 -219.3 -386.6 -187.5 -389.4C-155.8 -392.3 -120.9 -379.4 -89.2 -390.7C-57.4 -402 -28.7 -437.6 0 -473.2L0 0Z" fill="#040404"></path><path d="M-405.6 0C-391.3 -28.3 -377 -56.7 -367.1 -83.8C-357.1 -110.9 -351.4 -136.8 -346 -166.6C-340.5 -196.4 -335.2 -230.1 -317.1 -252.9C-299 -275.7 -268.1 -287.5 -240.4 -301.4C-212.6 -315.3 -188 -331.3 -160.8 -333.8C-133.5 -336.3 -103.7 -325.2 -76.4 -334.9C-49.2 -344.6 -24.6 -375.1 0 -405.6L0 0Z" fill="#070707"></path><path d="M-338 0C-326.1 -23.6 -314.2 -47.2 -305.9 -69.8C-297.6 -92.4 -292.9 -114 -288.3 -138.8C-283.8 -163.7 -279.4 -191.8 -264.3 -210.8C-249.2 -229.7 -223.4 -239.6 -200.3 -251.2C-177.2 -262.8 -156.7 -276.1 -134 -278.2C-111.3 -280.2 -86.4 -271 -63.7 -279.1C-41 -287.2 -20.5 -312.6 0 -338L0 0Z" fill="#0a0a0a"></path><path d="M-270.4 0C-260.9 -18.9 -251.4 -37.8 -244.7 -55.9C-238.1 -73.9 -234.3 -91.2 -230.6 -111.1C-227 -130.9 -223.5 -153.4 -211.4 -168.6C-199.4 -183.8 -178.7 -191.7 -160.2 -200.9C-141.7 -210.2 -125.3 -220.9 -107.2 -222.5C-89 -224.2 -69.1 -216.8 -51 -223.3C-32.8 -229.7 -16.4 -250.1 0 -270.4L0 0Z" fill="#0d0d0d"></path><path d="M-202.8 0C-195.7 -14.2 -188.5 -28.3 -183.5 -41.9C-178.5 -55.4 -175.7 -68.4 -173 -83.3C-170.3 -98.2 -167.6 -115.1 -158.6 -126.5C-149.5 -137.8 -134.1 -143.7 -120.2 -150.7C-106.3 -157.7 -94 -165.7 -80.4 -166.9C-66.8 -168.1 -51.8 -162.6 -38.2 -167.4C-24.6 -172.3 -12.3 -187.6 0 -202.8L0 0Z" fill="#0f0f0f"></path><path d="M-135.2 0C-130.4 -9.4 -125.7 -18.9 -122.4 -27.9C-119 -37 -117.1 -45.6 -115.3 -55.5C-113.5 -65.5 -111.7 -76.7 -105.7 -84.3C-99.7 -91.9 -89.4 -95.8 -80.1 -100.5C-70.9 -105.1 -62.7 -110.4 -53.6 -111.3C-44.5 -112.1 -34.6 -108.4 -25.5 -111.6C-16.4 -114.9 -8.2 -125 0 -135.2L0 0Z" fill="#111111"></path><path d="M-67.6 0C-65.2 -4.7 -62.8 -9.4 -61.2 -14C-59.5 -18.5 -58.6 -22.8 -57.7 -27.8C-56.8 -32.7 -55.9 -38.4 -52.9 -42.2C-49.8 -45.9 -44.7 -47.9 -40.1 -50.2C-35.4 -52.6 -31.3 -55.2 -26.8 -55.6C-22.3 -56 -17.3 -54.2 -12.7 -55.8C-8.2 -57.4 -4.1 -62.5 0 -67.6L0 0Z" fill="#121212"></path></g><g transform="translate(0, 0)"><path d="M540.8 0C548.1 44.4 555.5 88.9 527.3 120.3C499.1 151.8 435.4 170.3 400.9 193.1C366.4 215.9 361.1 243 357.3 284.9C353.5 326.8 351.1 383.5 323 405C294.8 426.5 240.8 412.9 202.2 419.9C163.5 426.8 140.2 454.1 109 477.7C77.9 501.3 38.9 521.1 0 540.8L0 0Z" fill="#010101"></path><path d="M473.2 0C479.6 38.9 486 77.8 461.4 105.3C436.7 132.8 381 149 350.8 168.9C320.6 188.9 316 212.7 312.6 249.3C309.3 286 307.2 335.5 282.6 354.4C258 373.2 210.7 361.3 176.9 367.4C143.1 373.4 122.7 397.4 95.4 418C68.2 438.6 34.1 455.9 0 473.2L0 0Z" fill="#040404"></path><path d="M405.6 0C411.1 33.3 416.6 66.7 395.5 90.3C374.3 113.9 326.6 127.7 300.7 144.8C274.8 161.9 270.8 182.3 268 213.7C265.1 245.1 263.3 287.6 242.2 303.7C221.1 319.9 180.6 309.7 151.6 314.9C122.6 320.1 105.1 340.6 81.8 358.3C58.4 376 29.2 390.8 0 405.6L0 0Z" fill="#070707"></path><path d="M338 0C342.6 27.8 347.2 55.6 329.5 75.2C311.9 94.9 272.1 106.4 250.6 120.7C229 134.9 225.7 151.9 223.3 178.1C220.9 204.3 219.5 239.7 201.9 253.1C184.3 266.6 150.5 258.1 126.4 262.4C102.2 266.7 87.6 283.8 68.1 298.6C48.7 313.3 24.3 325.7 0 338L0 0Z" fill="#0a0a0a"></path><path d="M270.4 0C274.1 22.2 277.7 44.4 263.6 60.2C249.5 75.9 217.7 85.1 200.5 96.5C183.2 107.9 180.6 121.5 178.6 142.5C176.7 163.4 175.6 191.7 161.5 202.5C147.4 213.3 120.4 206.5 101.1 209.9C81.8 213.4 70.1 227.1 54.5 238.9C38.9 250.6 19.5 260.5 0 270.4L0 0Z" fill="#0d0d0d"></path><path d="M202.8 0C205.6 16.7 208.3 33.3 197.7 45.1C187.2 56.9 163.3 63.9 150.3 72.4C137.4 81 135.4 91.1 134 106.9C132.6 122.6 131.7 143.8 121.1 151.9C110.6 159.9 90.3 154.9 75.8 157.4C61.3 160 52.6 170.3 40.9 179.1C29.2 188 14.6 195.4 0 202.8L0 0Z" fill="#0f0f0f"></path><path d="M135.2 0C137 11.1 138.9 22.2 131.8 30.1C124.8 38 108.9 42.6 100.2 48.3C91.6 54 90.3 60.8 89.3 71.2C88.4 81.7 87.8 95.9 80.7 101.2C73.7 106.6 60.2 103.2 50.5 105C40.9 106.7 35 113.5 27.3 119.4C19.5 125.3 9.7 130.3 0 135.2L0 0Z" fill="#111111"></path><path d="M67.6 0C68.5 5.6 69.4 11.1 65.9 15C62.4 19 54.4 21.3 50.1 24.1C45.8 27 45.1 30.4 44.7 35.6C44.2 40.9 43.9 47.9 40.4 50.6C36.9 53.3 30.1 51.6 25.3 52.5C20.4 53.3 17.5 56.8 13.6 59.7C9.7 62.7 4.9 65.1 0 67.6L0 0Z" fill="#121212"></path></g></svg>