<svg id="visual" viewBox="0 0 900 600" width="900" height="600" xmlns="http://www.w3.org/2000/svg" xmlns:xlink="http://www.w3.org/1999/xlink" version="1.1"><rect x="0" y="0" width="900" height="600" fill="#111111"></rect><defs><linearGradient id="grad1_0" x1="33.3%" y1="0%" x2="100%" y2="100%"><stop offset="20%" stop-color="#000000" stop-opacity="1"></stop><stop offset="80%" stop-color="#000000" stop-opacity="1"></stop></linearGradient></defs><defs><linearGradient id="grad1_1" x1="33.3%" y1="0%" x2="100%" y2="100%"><stop offset="20%" stop-color="#000000" stop-opacity="1"></stop><stop offset="80%" stop-color="#030303" stop-opacity="1"></stop></linearGradient></defs><defs><linearGradient id="grad1_2" x1="33.3%" y1="0%" x2="100%" y2="100%"><stop offset="20%" stop-color="#050505" stop-opacity="1"></stop><stop offset="80%" stop-color="#030303" stop-opacity="1"></stop></linearGradient></defs><defs><linearGradient id="grad1_3" x1="33.3%" y1="0%" x2="100%" y2="100%"><stop offset="20%" stop-color="#050505" stop-opacity="1"></stop><stop offset="80%" stop-color="#080808" stop-opacity="1"></stop></linearGradient></defs><defs><linearGradient id="grad1_4" x1="33.3%" y1="0%" x2="100%" y2="100%"><stop offset="20%" stop-color="#0b0b0b" stop-opacity="1"></stop><stop offset="80%" stop-color="#080808" stop-opacity="1"></stop></linearGradient></defs><defs><linearGradient id="grad1_5" x1="33.3%" y1="0%" x2="100%" y2="100%"><stop offset="20%" stop-color="#0b0b0b" stop-opacity="1"></stop><stop offset="80%" stop-color="#0d0d0d" stop-opacity="1"></stop></linearGradient></defs><defs><linearGradient id="grad1_6" x1="33.3%" y1="0%" x2="100%" y2="100%"><stop offset="20%" stop-color="#0f0f0f" stop-opacity="1"></stop><stop offset="80%" stop-color="#0d0d0d" stop-opacity="1"></stop></linearGradient></defs><defs><linearGradient id="grad1_7" x1="33.3%" y1="0%" x2="100%" y2="100%"><stop offset="20%" stop-color="#0f0f0f" stop-opacity="1"></stop><stop offset="80%" stop-color="#111111" stop-opacity="1"></stop></linearGradient></defs><defs><linearGradient id="grad2_0" x1="0%" y1="0%" x2="66.7%" y2="100%"><stop offset="20%" stop-color="#000000" stop-opacity="1"></stop><stop offset="80%" stop-color="#000000" stop-opacity="1"></stop></linearGradient></defs><defs><linearGradient id="grad2_1" x1="0%" y1="0%" x2="66.7%" y2="100%"><stop offset="20%" stop-color="#030303" stop-opacity="1"></stop><stop offset="80%" stop-color="#000000" stop-opacity="1"></stop></linearGradient></defs><defs><linearGradient id="grad2_2" x1="0%" y1="0%" x2="66.7%" y2="100%"><stop offset="20%" stop-color="#030303" stop-opacity="1"></stop><stop offset="80%" stop-color="#050505" stop-opacity="1"></stop></linearGradient></defs><defs><linearGradient id="grad2_3" x1="0%" y1="0%" x2="66.7%" y2="100%"><stop offset="20%" stop-color="#080808" stop-opacity="1"></stop><stop offset="80%" stop-color="#050505" stop-opacity="1"></stop></linearGradient></defs><defs><linearGradient id="grad2_4" x1="0%" y1="0%" x2="66.7%" y2="100%"><stop offset="20%" stop-color="#080808" stop-opacity="1"></stop><stop offset="80%" stop-color="#0b0b0b" stop-opacity="1"></stop></linearGradient></defs><defs><linearGradient id="grad2_5" x1="0%" y1="0%" x2="66.7%" y2="100%"><stop offset="20%" stop-color="#0d0d0d" stop-opacity="1"></stop><stop offset="80%" stop-color="#0b0b0b" stop-opacity="1"></stop></linearGradient></defs><defs><linearGradient id="grad2_6" x1="0%" y1="0%" x2="66.7%" y2="100%"><stop offset="20%" stop-color="#0d0d0d" stop-opacity="1"></stop><stop offset="80%" stop-color="#0f0f0f" stop-opacity="1"></stop></linearGradient></defs><defs><linearGradient id="grad2_7" x1="0%" y1="0%" x2="66.7%" y2="100%"><stop offset="20%" stop-color="#111111" stop-opacity="1"></stop><stop offset="80%" stop-color="#0f0f0f" stop-opacity="1"></stop></linearGradient></defs><g transform="translate(900, 0)"><path d="M0 540.8C-37.8 521.8 -75.5 502.7 -111.7 489.4C-147.9 476.1 -182.4 468.6 -222.1 461.3C-261.9 454 -306.9 447 -337.2 422.8C-367.6 398.7 -383.3 357.5 -401.9 320.5C-420.4 283.5 -441.8 250.6 -445.1 214.3C-448.4 178 -433.6 138.2 -446.5 101.9C-459.5 65.6 -500.1 32.8 -540.8 0L0 0Z" fill="#101010"></path><path d="M0 473.2C-33.1 456.6 -66.1 439.9 -97.7 428.2C-129.4 416.6 -159.6 410 -194.4 403.6C-229.2 397.3 -268.5 391.1 -295.1 370C-321.6 348.9 -335.4 312.8 -351.6 280.4C-367.9 248 -386.6 219.3 -389.4 187.5C-392.3 155.8 -379.4 120.9 -390.7 89.2C-402 57.4 -437.6 28.7 -473.2 0L0 0Z" fill="#0e0e0e"></path><path d="M0 405.6C-28.3 391.3 -56.7 377 -83.8 367.1C-110.9 357.1 -136.8 351.4 -166.6 346C-196.4 340.5 -230.1 335.2 -252.9 317.1C-275.7 299 -287.5 268.1 -301.4 240.4C-315.3 212.6 -331.3 188 -333.8 160.8C-336.3 133.5 -325.2 103.7 -334.9 76.4C-344.6 49.2 -375.1 24.6 -405.6 0L0 0Z" fill="#0c0c0c"></path><path d="M0 338C-23.6 326.1 -47.2 314.2 -69.8 305.9C-92.4 297.6 -114 292.9 -138.8 288.3C-163.7 283.8 -191.8 279.4 -210.8 264.3C-229.7 249.2 -239.6 223.4 -251.2 200.3C-262.8 177.2 -276.1 156.7 -278.2 134C-280.2 111.3 -271 86.4 -279.1 63.7C-287.2 41 -312.6 20.5 -338 0L0 0Z" fill="#090909"></path><path d="M0 270.4C-18.9 260.9 -37.8 251.4 -55.9 244.7C-73.9 238.1 -91.2 234.3 -111.1 230.6C-130.9 227 -153.4 223.5 -168.6 211.4C-183.8 199.4 -191.7 178.7 -200.9 160.2C-210.2 141.7 -220.9 125.3 -222.5 107.2C-224.2 89 -216.8 69.1 -223.3 51C-229.7 32.8 -250.1 16.4 -270.4 0L0 0Z" fill="#070707"></path><path d="M0 202.8C-14.2 195.7 -28.3 188.5 -41.9 183.5C-55.4 178.5 -68.4 175.7 -83.3 173C-98.2 170.3 -115.1 167.6 -126.5 158.6C-137.8 149.5 -143.7 134.1 -150.7 120.2C-157.7 106.3 -165.7 94 -166.9 80.4C-168.1 66.8 -162.6 51.8 -167.4 38.2C-172.3 24.6 -187.6 12.3 -202.8 0L0 0Z" fill="#040404"></path><path d="M0 135.2C-9.4 130.4 -18.9 125.7 -27.9 122.4C-37 119 -45.6 117.1 -55.5 115.3C-65.5 113.5 -76.7 111.7 -84.3 105.7C-91.9 99.7 -95.8 89.4 -100.5 80.1C-105.1 70.9 -110.4 62.7 -111.3 53.6C-112.1 44.5 -108.4 34.6 -111.6 25.5C-114.9 16.4 -125 8.2 -135.2 0L0 0Z" fill="#010101"></path><path d="M0 67.6C-4.7 65.2 -9.4 62.8 -14 61.2C-18.5 59.5 -22.8 58.6 -27.8 57.7C-32.7 56.8 -38.4 55.9 -42.2 52.9C-45.9 49.8 -47.9 44.7 -50.2 40.1C-52.6 35.4 -55.2 31.3 -55.6 26.8C-56 22.3 -54.2 17.3 -55.8 12.7C-57.4 8.2 -62.5 4.1 -67.6 0L0 0Z" fill="#000000"></path></g><g transform="translate(0, 600)"><path d="M0 -540.8C44.4 -548.1 88.9 -555.5 120.3 -527.3C151.8 -499.1 170.3 -435.4 193.1 -400.9C215.9 -366.4 243 -361.1 284.9 -357.3C326.8 -353.5 383.5 -351.1 405 -323C426.5 -294.8 412.9 -240.8 419.9 -202.2C426.8 -163.5 454.1 -140.2 477.7 -109C501.3 -77.9 521.1 -38.9 540.8 0L0 0Z" fill="#101010"></path><path d="M0 -473.2C38.9 -479.6 77.8 -486 105.3 -461.4C132.8 -436.7 149 -381 168.9 -350.8C188.9 -320.6 212.7 -316 249.3 -312.6C286 -309.3 335.5 -307.2 354.4 -282.6C373.2 -258 361.3 -210.7 367.4 -176.9C373.4 -143.1 397.4 -122.7 418 -95.4C438.6 -68.2 455.9 -34.1 473.2 0L0 0Z" fill="#0e0e0e"></path><path d="M0 -405.6C33.3 -411.1 66.7 -416.6 90.3 -395.5C113.9 -374.3 127.7 -326.6 144.8 -300.7C161.9 -274.8 182.3 -270.8 213.7 -268C245.1 -265.1 287.6 -263.3 303.7 -242.2C319.9 -221.1 309.7 -180.6 314.9 -151.6C320.1 -122.6 340.6 -105.1 358.3 -81.8C376 -58.4 390.8 -29.2 405.6 0L0 0Z" fill="#0c0c0c"></path><path d="M0 -338C27.8 -342.6 55.6 -347.2 75.2 -329.5C94.9 -311.9 106.4 -272.1 120.7 -250.6C134.9 -229 151.9 -225.7 178.1 -223.3C204.3 -220.9 239.7 -219.5 253.1 -201.9C266.6 -184.3 258.1 -150.5 262.4 -126.4C266.7 -102.2 283.8 -87.6 298.6 -68.1C313.3 -48.7 325.7 -24.3 338 0L0 0Z" fill="#090909"></path><path d="M0 -270.4C22.2 -274.1 44.4 -277.7 60.2 -263.6C75.9 -249.5 85.1 -217.7 96.5 -200.5C107.9 -183.2 121.5 -180.6 142.5 -178.6C163.4 -176.7 191.7 -175.6 202.5 -161.5C213.3 -147.4 206.5 -120.4 209.9 -101.1C213.4 -81.8 227.1 -70.1 238.9 -54.5C250.6 -38.9 260.5 -19.5 270.4 0L0 0Z" fill="#070707"></path><path d="M0 -202.8C16.7 -205.6 33.3 -208.3 45.1 -197.7C56.9 -187.2 63.9 -163.3 72.4 -150.3C81 -137.4 91.1 -135.4 106.9 -134C122.6 -132.6 143.8 -131.7 151.9 -121.1C159.9 -110.6 154.9 -90.3 157.4 -75.8C160 -61.3 170.3 -52.6 179.1 -40.9C188 -29.2 195.4 -14.6 202.8 0L0 0Z" fill="#040404"></path><path d="M0 -135.2C11.1 -137 22.2 -138.9 30.1 -131.8C38 -124.8 42.6 -108.9 48.3 -100.2C54 -91.6 60.8 -90.3 71.2 -89.3C81.7 -88.4 95.9 -87.8 101.2 -80.7C106.6 -73.7 103.2 -60.2 105 -50.5C106.7 -40.9 113.5 -35 119.4 -27.3C125.3 -19.5 130.3 -9.7 135.2 0L0 0Z" fill="#010101"></path><path d="M0 -67.6C5.6 -68.5 11.1 -69.4 15 -65.9C19 -62.4 21.3 -54.4 24.1 -50.1C27 -45.8 30.4 -45.1 35.6 -44.7C40.9 -44.2 47.9 -43.9 50.6 -40.4C53.3 -36.9 51.6 -30.1 52.5 -25.3C53.3 -20.4 56.8 -17.5 59.7 -13.6C62.7 -9.7 65.1 -4.9 67.6 0L0 0Z" fill="#000000"></path></g></svg>